<svg id="Layer_2" data-name="Layer 2" xmlns="http://www.w3.org/2000/svg" width="70.82" height="70.82" viewBox="0 0 70.82 70.82"><defs><style>.cls-1{fill:#ccc;}.cls-2{fill:#fa3d32;}.cls-3{fill:#fff;}</style></defs><path class="cls-1" d="M35.41,0A35.41,35.41,0,1,0,70.82,35.41,35.41,35.41,0,0,0,35.41,0Zm0,68.8A33.39,33.39,0,1,1,68.8,35.41,33.39,33.39,0,0,1,35.41,68.8Z"/><circle class="cls-2" cx="35.41" cy="35.41" r="29.65" transform="translate(-14.67 35.41) rotate(-45)"/><path class="cls-3" d="M21.8,44.25a7.68,7.68,0,0,1-3.16-.66,8.42,8.42,0,0,1-5-7.69,12.08,12.08,0,0,1,.58-3.84A9.32,9.32,0,0,1,15.92,29a7.73,7.73,0,0,1,2.56-2,7.61,7.61,0,0,1,3.34-.72,7.33,7.33,0,0,1,5.31,2.2,7.07,7.07,0,0,1,1.52,2.32,7.18,7.18,0,0,1,.55,2.75H16.86a11.78,11.78,0,0,0,.42,3.22,8.37,8.37,0,0,0,1.21,2.57A5.89,5.89,0,0,0,20.33,41a4.75,4.75,0,0,0,2.35.6,5.94,5.94,0,0,0,2.05-.36,7.11,7.11,0,0,0,1.79-1A7,7,0,0,0,27.89,39a4.94,4.94,0,0,0,.79-1.57l.95.44a7.83,7.83,0,0,1-1.15,2.49,9.24,9.24,0,0,1-1.85,2,8.54,8.54,0,0,1-2.3,1.37A6.61,6.61,0,0,1,21.8,44.25Zm3.27-12.08a5,5,0,0,0-.33-1.83,4.74,4.74,0,0,0-.91-1.46,4.39,4.39,0,0,0-1.36-1,4.06,4.06,0,0,0-1.67-.35,3.1,3.1,0,0,0-1.42.35,4,4,0,0,0-1.21,1,5.28,5.28,0,0,0-.89,1.46,6,6,0,0,0-.41,1.82Z"/><path class="cls-3" d="M33.37,26.28h.94v3.88q.49-.66,1.11-1.35a9.43,9.43,0,0,1,1.34-1.26,6.79,6.79,0,0,1,1.62-.92,5.35,5.35,0,0,1,1.94-.35,5.49,5.49,0,0,1,2.67.64,6.45,6.45,0,0,1,2,1.74,8.09,8.09,0,0,1,1.31,2.57,10.39,10.39,0,0,1,.46,3.15,13,13,0,0,1-.57,3.95,9.27,9.27,0,0,1-1.61,3.13,7.27,7.27,0,0,1-2.56,2,7.54,7.54,0,0,1-3.36.74,10.06,10.06,0,0,1-1.27-.08A7.4,7.4,0,0,1,36.32,44a8.94,8.94,0,0,1-1-.39,7.93,7.93,0,0,1-1-.58v8.17H31V27.24Zm.94,12.94a3.46,3.46,0,0,0,.32,1.46,3.78,3.78,0,0,0,.91,1.2,4.42,4.42,0,0,0,1.39.81,5.08,5.08,0,0,0,1.78.29,3.32,3.32,0,0,0,1.74-.49,4.47,4.47,0,0,0,1.42-1.39,7.44,7.44,0,0,0,1-2.15,10,10,0,0,0,.35-2.77,15.54,15.54,0,0,0-.32-3.33,8.15,8.15,0,0,0-.9-2.37,4.13,4.13,0,0,0-1.36-1.42,3.32,3.32,0,0,0-1.72-.47,4,4,0,0,0-1.37.23,5.23,5.23,0,0,0-1.23.61,6.62,6.62,0,0,0-1.08.9,8,8,0,0,0-.88,1.06Z"/><path class="cls-3" d="M48.19,20a2.14,2.14,0,0,1,.14-.76,2,2,0,0,1,.41-.62,1.81,1.81,0,0,1,.6-.42,1.72,1.72,0,0,1,.72-.15,1.82,1.82,0,0,1,1.33.57A2,2,0,0,1,51.94,20a1.91,1.91,0,0,1-.15.76,1.88,1.88,0,0,1-.4.63,1.82,1.82,0,0,1-1.33.57,1.72,1.72,0,0,1-.72-.15,1.81,1.81,0,0,1-.6-.42,1.91,1.91,0,0,1-.41-.63A2.1,2.1,0,0,1,48.19,20Zm.26,7.28,2.31-1h1v17.6H48.45Z"/></svg>